<svg width="228" height="57" viewBox="0 0 228 57" fill="none" xmlns="http://www.w3.org/2000/svg">
<g id="Base Btn">
<rect id="Rectangle 2" x="0.878906" y="1.46841" width="226.453" height="54.3263" rx="2.5" fill="#345161" stroke="white"/>
<path id="&#225;&#131;&#168;&#225;&#131;&#148;&#225;&#131;&#155;&#225;&#131;&#157;&#225;&#131;&#145;&#225;&#131;&#160;&#225;&#131;&#171;&#225;&#131;&#144;&#225;&#131;&#156;&#225;&#131;&#147;&#225;&#131;&#152;" d="M66.5695 28.56C66.5695 28.1818 66.5285 27.8605 66.4464 27.5962C66.369 27.3273 66.2482 27.1085 66.0841 26.9399C65.9201 26.7667 65.715 26.6414 65.4689 26.5639C65.2228 26.4865 64.9357 26.4477 64.6076 26.4477C64.325 26.4432 64.0607 26.5024 63.8146 26.6255C63.5731 26.7485 63.3611 26.9171 63.1789 27.1313C63.0011 27.341 62.8598 27.587 62.755 27.8696C62.6548 28.1476 62.6046 28.4438 62.6046 28.7583V29.5102C62.6046 29.8019 62.6525 30.0844 62.7482 30.3579C62.8439 30.6268 62.9783 30.866 63.1515 31.0757C63.3247 31.2853 63.5343 31.4539 63.7804 31.5815C64.0265 31.7046 64.2977 31.7661 64.5939 31.7661C64.8628 31.7661 65.1157 31.7114 65.3527 31.602C65.5942 31.4926 65.8039 31.3445 65.9816 31.1577C66.1639 30.9663 66.3074 30.743 66.4123 30.4878C66.5171 30.228 66.5695 29.95 66.5695 29.6538V28.56ZM67.5197 29.6538C67.5197 30.0913 67.4376 30.49 67.2736 30.8501C67.1141 31.2101 66.8976 31.5177 66.6242 31.7729C66.3553 32.0281 66.0454 32.2264 65.6945 32.3676C65.3436 32.5089 64.9767 32.5796 64.5939 32.5796C64.1929 32.5796 63.8146 32.493 63.4591 32.3198C63.1037 32.1421 62.7915 31.9096 62.5226 31.6225C62.2583 31.3354 62.0464 31.0119 61.8869 30.6518C61.7319 30.2872 61.6544 29.9204 61.6544 29.5512V28.6147C61.6544 28.2091 61.7228 27.824 61.8595 27.4594C62.0008 27.0949 62.199 26.7758 62.4542 26.5024C62.714 26.229 63.0239 26.0125 63.3839 25.853C63.744 25.6889 64.1473 25.6069 64.5939 25.6069C64.7488 25.6069 64.9243 25.6229 65.1203 25.6548C65.3208 25.6821 65.5167 25.7368 65.7082 25.8188C65.8996 25.9008 66.0773 26.0171 66.2414 26.1674C66.41 26.3178 66.5421 26.5138 66.6378 26.7553V24.5268C66.6378 24.2169 66.6287 23.9572 66.6105 23.7475C66.5923 23.5333 66.5444 23.3624 66.4669 23.2348C66.394 23.1027 66.2778 23.0092 66.1183 22.9546C65.9588 22.8999 65.7401 22.8725 65.4621 22.8725C65.102 22.8725 64.8377 22.9751 64.6691 23.1801C64.505 23.3807 64.423 23.6518 64.423 23.9936V24.3559H63.6437V23.9936C63.6437 23.7977 63.6095 23.629 63.5412 23.4878C63.4728 23.3465 63.3817 23.2303 63.2677 23.1391C63.1538 23.048 63.0239 22.9819 62.8781 22.9409C62.7368 22.8953 62.591 22.8725 62.4406 22.8725C62.2811 22.8725 62.1489 22.8999 62.0441 22.9546C61.9393 23.0047 61.855 23.0708 61.7912 23.1528C61.7319 23.2303 61.6886 23.3169 61.6613 23.4126C61.6385 23.5037 61.6271 23.5903 61.6271 23.6723V24.7798H60.8546V23.6723C60.8546 23.4581 60.8934 23.2576 60.9708 23.0708C61.0483 22.8839 61.1531 22.7221 61.2853 22.5854C61.422 22.4441 61.5815 22.3348 61.7638 22.2573C61.9461 22.1753 62.1421 22.1342 62.3517 22.1342C62.5705 22.1342 62.7619 22.1548 62.9259 22.1958C63.09 22.2322 63.2358 22.2938 63.3634 22.3803C63.4956 22.4624 63.6141 22.5695 63.7189 22.7016C63.8237 22.8292 63.924 22.9842 64.0197 23.1665C64.2202 22.8201 64.4389 22.5626 64.6759 22.394C64.9175 22.2208 65.216 22.1342 65.5714 22.1342C65.9315 22.1342 66.2345 22.1821 66.4806 22.2778C66.7313 22.3689 66.9318 22.5125 67.0822 22.7085C67.2371 22.8999 67.3488 23.1437 67.4171 23.4399C67.4855 23.7361 67.5197 24.0848 67.5197 24.4858V29.6538ZM76.2475 30.228C76.2475 30.6427 76.1701 30.9982 76.0151 31.2944C75.8647 31.5906 75.6596 31.8344 75.3999 32.0258C75.1447 32.2173 74.8484 32.3585 74.5112 32.4497C74.174 32.5363 73.8208 32.5796 73.4516 32.5796C73.046 32.5796 72.6701 32.518 72.3237 32.395C71.9819 32.2674 71.6857 32.0919 71.435 31.8686C71.1889 31.6453 70.9952 31.381 70.854 31.0757C70.7173 30.7703 70.6489 30.4399 70.6489 30.0844C70.6489 29.7518 70.6808 29.4601 70.7446 29.2094C70.813 28.9542 70.9041 28.7264 71.018 28.5258C71.1365 28.3208 71.2732 28.1408 71.4282 27.9858C71.5877 27.8263 71.7586 27.6759 71.9409 27.5346L72.5288 28.1225C72.3556 28.282 72.2098 28.4256 72.0913 28.5532C71.9728 28.6762 71.8771 28.8084 71.8042 28.9497C71.7313 29.091 71.6788 29.2527 71.6469 29.435C71.615 29.6128 71.5991 29.8338 71.5991 30.0981C71.5991 30.6313 71.7495 31.0438 72.0503 31.3354C72.351 31.6225 72.8182 31.7661 73.4516 31.7661C73.7296 31.7661 73.9826 31.7296 74.2104 31.6567C74.4383 31.5838 74.632 31.479 74.7915 31.3423C74.9555 31.2055 75.0809 31.0415 75.1674 30.8501C75.254 30.6541 75.2973 30.4354 75.2973 30.1938V24.3901C75.2973 24.1759 75.2586 23.9799 75.1811 23.8022C75.1082 23.6245 75.0034 23.4741 74.8667 23.351C74.7299 23.2234 74.5636 23.1255 74.3676 23.0571C74.1717 22.9842 73.9507 22.9477 73.7046 22.9477C73.4539 22.9477 73.2238 22.9819 73.0141 23.0503C72.8091 23.1186 72.6313 23.2166 72.4809 23.3442C72.3305 23.4673 72.2143 23.6199 72.1323 23.8022C72.0503 23.9799 72.0092 24.1805 72.0092 24.4038C72.0092 24.5587 72.0298 24.716 72.0708 24.8755C72.1118 25.0304 72.1984 25.2127 72.3305 25.4223L71.6264 25.9555C71.2846 25.4998 71.1137 24.9826 71.1137 24.4038C71.1137 24.062 71.173 23.7521 71.2915 23.4741C71.41 23.1915 71.5786 22.95 71.7973 22.7495C72.0161 22.549 72.2781 22.394 72.5835 22.2846C72.8934 22.1753 73.2374 22.1206 73.6157 22.1206C73.9848 22.1206 74.3289 22.1707 74.6479 22.271C74.9715 22.3667 75.2518 22.5102 75.4887 22.7016C75.7257 22.893 75.9103 23.13 76.0424 23.4126C76.1792 23.6951 76.2475 24.021 76.2475 24.3901V30.228ZM84.0183 28.1841C84.0183 27.8058 83.9705 27.4845 83.8748 27.2202C83.7836 26.9513 83.656 26.7326 83.492 26.5639C83.3279 26.3953 83.1342 26.2723 82.9109 26.1948C82.6876 26.1173 82.4461 26.0786 82.1863 26.0786C81.881 26.0786 81.6121 26.1424 81.3797 26.27C81.1473 26.3976 80.9513 26.5639 80.7918 26.769C80.6368 26.9695 80.5183 27.1974 80.4363 27.4526C80.3588 27.7078 80.3201 27.9607 80.3201 28.2114V29.6538C80.3201 29.9773 80.3634 30.269 80.45 30.5288C80.5411 30.7885 80.6687 31.0119 80.8328 31.1987C81.0014 31.3855 81.2042 31.5291 81.4412 31.6294C81.6782 31.7296 81.9448 31.7798 82.241 31.7798C82.8198 31.7798 83.2596 31.5975 83.5603 31.2329C83.8657 30.8637 84.0183 30.3374 84.0183 29.6538V28.1841ZM84.9685 29.8178C84.9685 30.2417 84.9002 30.6245 84.7635 30.9663C84.6313 31.3081 84.4445 31.5997 84.2029 31.8413C83.9614 32.0783 83.672 32.2605 83.3348 32.3882C82.9975 32.5158 82.6238 32.5796 82.2137 32.5796C81.7534 32.5796 81.3455 32.5066 80.99 32.3608C80.6346 32.2104 80.3361 32.0053 80.0945 31.7456C79.8575 31.4813 79.6775 31.1714 79.5545 30.8159C79.4314 30.4604 79.3699 30.073 79.3699 29.6538V28.2114C79.3699 27.8696 79.4314 27.5255 79.5545 27.1792C79.6775 26.8283 79.8575 26.5115 80.0945 26.229C80.3361 25.9464 80.6346 25.7163 80.99 25.5385C81.3455 25.3608 81.7534 25.2719 82.2137 25.2719C82.3686 25.2719 82.5304 25.2879 82.699 25.3198C82.8722 25.3471 83.0408 25.4041 83.2049 25.4907C83.3735 25.5773 83.533 25.698 83.6834 25.853C83.8383 26.0034 83.9728 26.2016 84.0867 26.4477V24.1645C84.0867 23.9731 84.032 23.8022 83.9226 23.6518C83.8178 23.5014 83.6788 23.3738 83.5057 23.269C83.337 23.1642 83.1456 23.0844 82.9314 23.0298C82.7172 22.9751 82.5008 22.9477 82.282 22.9477C82.0086 22.9477 81.7693 22.9751 81.5642 23.0298C81.3592 23.0799 81.1883 23.1482 81.0516 23.2348C80.9148 23.3214 80.8123 23.4217 80.7439 23.5356C80.6756 23.6495 80.6414 23.7703 80.6414 23.8979V24.6841H79.6775V23.8979C79.6775 23.6609 79.7504 23.4354 79.8963 23.2212C80.0467 23.007 80.2426 22.8178 80.4842 22.6538C80.7303 22.4897 81.0105 22.3598 81.325 22.2641C81.6394 22.1684 81.963 22.1206 82.2957 22.1206C82.6466 22.1206 82.9838 22.1707 83.3074 22.271C83.631 22.3667 83.9158 22.5057 84.1619 22.688C84.4126 22.8657 84.6108 23.0799 84.7566 23.3305C84.907 23.5812 84.9822 23.8592 84.9822 24.1645L84.9685 29.8178ZM97.1622 26.1948C97.1622 25.7299 97.1485 25.2993 97.1212 24.9028C97.0939 24.5063 97.0232 24.1645 96.9093 23.8774C96.7954 23.5857 96.6245 23.3579 96.3966 23.1938C96.1733 23.0298 95.8634 22.9477 95.4669 22.9477C94.3276 22.9477 93.7579 23.6245 93.7579 24.978V29.1889H92.8077V24.978C92.8077 24.2671 92.6664 23.7521 92.3839 23.4331C92.1013 23.1095 91.6684 22.9477 91.0851 22.9477C90.7159 22.9477 90.4197 23.0298 90.1964 23.1938C89.9776 23.3579 89.8067 23.588 89.6837 23.8842C89.5652 24.1759 89.4855 24.5245 89.4444 24.9301C89.408 25.3357 89.3898 25.7801 89.3898 26.2632V28.0542C89.3898 28.3504 89.4034 28.6489 89.4308 28.9497C89.4627 29.2459 89.5082 29.533 89.5675 29.811C89.6313 30.0844 89.711 30.3397 89.8067 30.5766C89.907 30.8136 90.0255 31.021 90.1622 31.1987C90.2989 31.3764 90.4562 31.5154 90.6339 31.6157C90.8162 31.716 91.019 31.7661 91.2423 31.7661V32.5796C90.8686 32.5796 90.5382 32.5158 90.2511 32.3882C89.9685 32.2605 89.7224 32.0874 89.5128 31.8686C89.3077 31.6499 89.1345 31.3947 88.9933 31.103C88.852 30.8068 88.7381 30.4923 88.6515 30.1596C88.5694 29.8224 88.5102 29.4783 88.4737 29.1274C88.4418 28.7719 88.4259 28.4233 88.4259 28.0815V26.2632C88.4259 25.9214 88.4373 25.5818 88.4601 25.2446C88.4829 24.9074 88.5284 24.5861 88.5968 24.2807C88.6651 23.9754 88.7586 23.6906 88.8771 23.4262C89.0001 23.1619 89.1596 22.9341 89.3556 22.7426C89.5561 22.5467 89.7976 22.394 90.0802 22.2846C90.3673 22.1753 90.7068 22.1206 91.0987 22.1206C91.3813 22.1206 91.6319 22.1548 91.8507 22.2231C92.074 22.2915 92.27 22.3917 92.4386 22.5239C92.6118 22.6515 92.7622 22.8087 92.8898 22.9956C93.0219 23.1824 93.1404 23.3943 93.2452 23.6313C93.3364 23.3943 93.4457 23.1824 93.5733 22.9956C93.701 22.8087 93.8536 22.6515 94.0314 22.5239C94.2091 22.3917 94.4142 22.2915 94.6466 22.2231C94.8836 22.1548 95.157 22.1206 95.4669 22.1206C95.8406 22.1206 96.1664 22.1753 96.4444 22.2846C96.727 22.3895 96.9663 22.5376 97.1622 22.729C97.3582 22.9158 97.52 23.1391 97.6476 23.3989C97.7752 23.6541 97.8754 23.9321 97.9483 24.2329C98.0213 24.5291 98.0714 24.8413 98.0987 25.1694C98.1261 25.4975 98.1398 25.8257 98.1398 26.1538L98.1261 28.0815C98.1261 28.4051 98.1056 28.7423 98.0646 29.0932C98.0281 29.4396 97.9643 29.7791 97.8732 30.1118C97.7866 30.4445 97.6726 30.7612 97.5314 31.062C97.3901 31.3582 97.2169 31.6202 97.0118 31.8481C96.8067 32.0714 96.5652 32.2492 96.2872 32.3813C96.0138 32.5135 95.6993 32.5796 95.3439 32.5796V31.7661C95.6492 31.7661 95.9158 31.659 96.1437 31.4448C96.3715 31.226 96.5607 30.9412 96.711 30.5903C96.8614 30.2348 96.9731 29.8338 97.046 29.3872C97.1235 28.936 97.1622 28.478 97.1622 28.0132V26.1948ZM102.226 29.6538C102.226 29.9272 102.26 30.1915 102.329 30.4467C102.401 30.702 102.513 30.9275 102.664 31.1235C102.814 31.3195 103.005 31.4767 103.238 31.5952C103.47 31.7091 103.748 31.7661 104.072 31.7661C104.409 31.7661 104.694 31.7023 104.926 31.5747C105.163 31.4471 105.355 31.2853 105.5 31.0893C105.646 30.8888 105.751 30.6701 105.815 30.4331C105.883 30.1915 105.917 29.9591 105.917 29.7358V28.3481C105.917 28.1111 105.879 27.8673 105.801 27.6167C105.728 27.3615 105.614 27.1313 105.459 26.9262C105.309 26.7212 105.118 26.5525 104.885 26.4204C104.653 26.2882 104.382 26.2221 104.072 26.2221C103.739 26.2221 103.454 26.2814 103.217 26.3999C102.985 26.5138 102.796 26.6688 102.65 26.8647C102.504 27.0607 102.397 27.2908 102.329 27.5551C102.26 27.8195 102.226 28.0975 102.226 28.3891V29.6538ZM103.108 22.1206C103.108 22.312 103.153 22.4715 103.245 22.5991C103.34 22.7221 103.459 22.8292 103.6 22.9204C103.746 23.0115 103.901 23.0958 104.065 23.1733C104.229 23.2462 104.382 23.326 104.523 23.4126C104.669 23.4992 104.787 23.6017 104.878 23.7202C104.974 23.8341 105.022 23.9777 105.022 24.1508C105.022 24.2876 105.015 24.4106 105.001 24.52C104.988 24.6248 104.965 24.7273 104.933 24.8276C104.906 24.9233 104.869 25.0213 104.824 25.1216C104.778 25.2173 104.723 25.3266 104.66 25.4497C105.029 25.5363 105.35 25.6821 105.623 25.8872C105.897 26.0923 106.125 26.3292 106.307 26.5981C106.494 26.8624 106.633 27.145 106.724 27.4458C106.815 27.742 106.861 28.0245 106.861 28.2934L106.874 29.8178C106.874 30.1004 106.813 30.4035 106.69 30.727C106.571 31.046 106.394 31.3445 106.157 31.6225C105.924 31.896 105.633 32.1238 105.282 32.3061C104.931 32.4884 104.527 32.5796 104.072 32.5796C103.611 32.5796 103.206 32.4952 102.855 32.3266C102.504 32.158 102.21 31.9415 101.973 31.6772C101.741 31.4083 101.565 31.1098 101.447 30.7817C101.328 30.4536 101.269 30.1277 101.269 29.8042V28.3071C101.269 28.0018 101.315 27.6941 101.406 27.3842C101.497 27.0744 101.643 26.7872 101.843 26.5229C102.048 26.2586 102.308 26.0307 102.622 25.8393C102.942 25.6479 103.327 25.518 103.778 25.4497C103.846 25.2856 103.899 25.1466 103.935 25.0327C103.976 24.9188 104.006 24.8162 104.024 24.7251C104.047 24.6294 104.06 24.5405 104.065 24.4585C104.069 24.3764 104.072 24.283 104.072 24.1782C104.067 24.0643 104.017 23.9663 103.921 23.8842C103.826 23.8022 103.705 23.7225 103.559 23.645C103.418 23.5675 103.265 23.4878 103.101 23.4057C102.937 23.3237 102.784 23.2257 102.643 23.1118C102.502 22.9933 102.383 22.8566 102.288 22.7016C102.196 22.5421 102.151 22.3484 102.151 22.1206H103.108ZM119.629 29.2983C119.629 29.4943 119.597 29.713 119.533 29.9546C119.469 30.1915 119.378 30.4331 119.26 30.6792C119.141 30.9207 118.997 31.1577 118.829 31.3901C118.665 31.618 118.478 31.8208 118.268 31.9985C118.063 32.1762 117.838 32.3198 117.592 32.4292C117.35 32.5385 117.095 32.5932 116.826 32.5932V31.7661C117.081 31.7661 117.32 31.6841 117.544 31.52C117.772 31.3559 117.968 31.1508 118.132 30.9048C118.3 30.6587 118.432 30.3921 118.528 30.1049C118.624 29.8178 118.672 29.5535 118.672 29.312V28.2661C118.672 27.8104 118.612 27.4367 118.494 27.145C118.375 26.8488 118.23 26.6186 118.056 26.4546C117.883 26.2859 117.696 26.1697 117.496 26.1059C117.3 26.0421 117.122 26.0102 116.963 26.0102C116.78 26.0102 116.589 26.0444 116.388 26.1128C116.188 26.1811 116.003 26.2973 115.835 26.4614C115.666 26.6209 115.525 26.8351 115.411 27.104C115.302 27.3683 115.247 27.6987 115.247 28.0952V29.6264H114.29V28.0952C114.29 27.6987 114.235 27.3683 114.126 27.104C114.016 26.8351 113.877 26.6209 113.709 26.4614C113.545 26.2973 113.362 26.1811 113.162 26.1128C112.966 26.0444 112.779 26.0102 112.601 26.0102C112.387 26.0102 112.177 26.0421 111.972 26.1059C111.767 26.1697 111.583 26.2859 111.419 26.4546C111.259 26.6186 111.129 26.8488 111.029 27.145C110.929 27.4367 110.879 27.8104 110.879 28.2661V29.3462C110.879 29.5011 110.897 29.6697 110.933 29.852C110.974 30.0298 111.031 30.2098 111.104 30.3921C111.182 30.5698 111.273 30.743 111.378 30.9116C111.487 31.0757 111.61 31.2215 111.747 31.3491C111.888 31.4767 112.041 31.5792 112.205 31.6567C112.373 31.7296 112.551 31.7661 112.738 31.7661V32.5796C112.428 32.5796 112.143 32.5249 111.884 32.4155C111.624 32.3061 111.389 32.1603 111.179 31.978C110.974 31.7957 110.792 31.5883 110.633 31.3559C110.473 31.1235 110.341 30.8842 110.236 30.6382C110.131 30.3921 110.052 30.1505 109.997 29.9135C109.947 29.672 109.922 29.4533 109.922 29.2573V28.2661C109.922 27.7648 109.963 27.2658 110.045 26.769C110.131 26.2677 110.277 25.7892 110.482 25.3335C110.687 24.8777 110.963 24.4562 111.309 24.0688C111.66 23.6769 112.102 23.3374 112.635 23.0503C113.169 22.7586 113.802 22.5307 114.536 22.3667C115.274 22.2026 116.131 22.1206 117.106 22.1206V22.9477C116.313 22.9477 115.598 23.0115 114.96 23.1391C114.322 23.2667 113.757 23.4467 113.264 23.6792C112.777 23.9116 112.362 24.1941 112.02 24.5268C111.678 24.8549 111.41 25.2195 111.214 25.6206L111.747 25.4633L112.601 25.2719C112.806 25.2719 113.014 25.2811 113.223 25.2993C113.433 25.3175 113.634 25.379 113.825 25.4839C114.021 25.5841 114.199 25.7413 114.358 25.9555C114.522 26.1697 114.659 26.4728 114.768 26.8647C114.9 26.4728 115.055 26.1697 115.233 25.9555C115.411 25.7413 115.598 25.5841 115.794 25.4839C115.99 25.379 116.188 25.3175 116.388 25.2993C116.589 25.2811 116.78 25.2719 116.963 25.2719C117.3 25.2719 117.628 25.3244 117.947 25.4292C118.266 25.534 118.551 25.7049 118.802 25.9419C119.052 26.1743 119.253 26.4819 119.403 26.8647C119.553 27.2475 119.629 27.7147 119.629 28.2661V29.2983ZM127.324 28.2114C127.324 27.9152 127.281 27.6372 127.194 27.3774C127.112 27.1176 126.992 26.8921 126.832 26.7007C126.673 26.5092 126.479 26.3589 126.251 26.2495C126.023 26.1355 125.766 26.0786 125.479 26.0786C124.886 26.0786 124.43 26.2563 124.111 26.6118C123.792 26.9627 123.633 27.4959 123.633 28.2114V29.7358C123.633 30.1141 123.674 30.4331 123.756 30.6928C123.843 30.948 123.963 31.1554 124.118 31.3149C124.278 31.4744 124.471 31.5906 124.699 31.6635C124.927 31.7319 125.187 31.7661 125.479 31.7661C125.77 31.7661 126.03 31.7023 126.258 31.5747C126.49 31.4471 126.684 31.283 126.839 31.0825C126.998 30.882 127.119 30.6587 127.201 30.4126C127.283 30.1665 127.324 29.9272 127.324 29.6948V28.2114ZM128.281 29.7358C128.281 30.146 128.215 30.5265 128.083 30.8774C127.951 31.2238 127.762 31.5245 127.516 31.7798C127.274 32.0304 126.98 32.2264 126.634 32.3676C126.292 32.5089 125.907 32.5796 125.479 32.5796C125 32.5796 124.583 32.5044 124.228 32.354C123.877 32.2036 123.585 31.9962 123.353 31.7319C123.125 31.4676 122.954 31.1554 122.84 30.7954C122.731 30.4354 122.676 30.0457 122.676 29.6264V28.1362C122.676 27.7169 122.731 27.3318 122.84 26.9809C122.954 26.63 123.125 26.3292 123.353 26.0786C123.585 25.8234 123.877 25.6251 124.228 25.4839C124.583 25.3426 125 25.2719 125.479 25.2719C125.602 25.2719 125.736 25.2833 125.882 25.3061C126.028 25.3289 126.178 25.3768 126.333 25.4497C126.493 25.518 126.654 25.616 126.818 25.7436C126.987 25.8712 127.156 26.0398 127.324 26.2495V22.1206H128.281V29.7358ZM137.071 29.5512C137.071 31.5701 136.136 32.5796 134.268 32.5796C133.808 32.5796 133.402 32.5021 133.051 32.3471C132.7 32.1922 132.406 31.9826 132.169 31.7182C131.937 31.4494 131.761 31.1372 131.643 30.7817C131.524 30.4262 131.465 30.0503 131.465 29.6538V29.1889C131.465 28.9155 131.534 28.6307 131.67 28.3344C131.807 28.0337 131.978 27.7397 132.183 27.4526L132.839 27.7876C132.771 27.9152 132.709 28.0451 132.655 28.1772C132.605 28.3094 132.561 28.437 132.525 28.56C132.493 28.6831 132.468 28.7993 132.45 28.9087C132.431 29.0135 132.422 29.1069 132.422 29.1889V29.6948C132.422 30.0275 132.454 30.3237 132.518 30.5835C132.582 30.8387 132.684 31.0551 132.826 31.2329C132.971 31.4061 133.163 31.5382 133.4 31.6294C133.637 31.7205 133.926 31.7661 134.268 31.7661C134.587 31.7661 134.863 31.7251 135.095 31.643C135.328 31.561 135.519 31.4311 135.669 31.2534C135.82 31.0757 135.931 30.8432 136.004 30.5561C136.077 30.269 136.114 29.9204 136.114 29.5102V28.7378C136.114 28.4051 136.07 28.1043 135.984 27.8354C135.897 27.562 135.783 27.3091 135.642 27.0766C135.501 26.8397 135.339 26.6186 135.157 26.4135C134.974 26.2085 134.79 26.0057 134.603 25.8051C134.416 25.6046 134.232 25.4018 134.049 25.1967C133.867 24.9917 133.705 24.7752 133.564 24.5473C133.423 24.3195 133.309 24.0734 133.222 23.8091C133.135 23.5447 133.092 23.2531 133.092 22.9341V22.1206H133.974V22.9341C133.974 23.285 134.049 23.6063 134.2 23.8979C134.355 24.1896 134.546 24.4721 134.774 24.7456C135.006 25.019 135.255 25.2924 135.519 25.5659C135.788 25.8393 136.036 26.1333 136.264 26.4477C136.496 26.7576 136.688 27.0994 136.838 27.4731C136.993 27.8468 137.071 28.2684 137.071 28.7378V29.5512ZM144.91 28.1225C144.91 27.8309 144.871 27.5597 144.794 27.3091C144.716 27.0584 144.6 26.8419 144.445 26.6596C144.295 26.4773 144.103 26.3361 143.871 26.2358C143.643 26.131 143.376 26.0786 143.071 26.0786C142.962 26.0786 142.839 26.0831 142.702 26.0923C142.57 26.0968 142.435 26.1196 142.299 26.1606C142.162 26.2016 142.027 26.2654 141.895 26.352C141.768 26.4341 141.651 26.5503 141.547 26.7007C141.446 26.851 141.364 27.0447 141.301 27.2817C141.241 27.5141 141.212 27.799 141.212 28.1362V29.7632C141.212 30.0366 141.248 30.2964 141.321 30.5424C141.398 30.784 141.512 30.9959 141.663 31.1782C141.813 31.3559 142.005 31.4995 142.237 31.6089C142.469 31.7137 142.743 31.7661 143.057 31.7661C143.682 31.7661 144.147 31.5883 144.452 31.2329C144.757 30.8729 144.91 30.3556 144.91 29.6811V28.1225ZM145.86 29.7768C145.86 30.2052 145.799 30.5926 145.676 30.9389C145.552 31.2807 145.372 31.5747 145.135 31.8208C144.903 32.0623 144.614 32.2492 144.267 32.3813C143.921 32.5135 143.522 32.5796 143.071 32.5796C142.661 32.5796 142.285 32.5158 141.943 32.3882C141.601 32.256 141.305 32.0691 141.054 31.8276C140.804 31.5815 140.608 31.2853 140.467 30.9389C140.33 30.588 140.261 30.1961 140.261 29.7632V24.0825C140.261 23.768 140.305 23.4946 140.391 23.2622C140.478 23.0298 140.594 22.8383 140.74 22.688C140.89 22.5376 141.066 22.4259 141.266 22.353C141.467 22.2801 141.681 22.2436 141.909 22.2436C142.1 22.2436 142.289 22.2619 142.476 22.2983C142.663 22.3302 142.848 22.3689 143.03 22.4145C143.217 22.4555 143.397 22.4943 143.57 22.5307C143.748 22.5626 143.919 22.5786 144.083 22.5786C144.219 22.5786 144.347 22.5695 144.466 22.5512C144.589 22.5285 144.709 22.4988 144.828 22.4624C144.951 22.4214 145.079 22.3735 145.211 22.3188C145.347 22.2596 145.498 22.1935 145.662 22.1206V22.8315C145.361 23.0138 145.081 23.1437 144.821 23.2212C144.561 23.2986 144.288 23.3374 144.001 23.3374C143.832 23.3374 143.668 23.3237 143.509 23.2964C143.354 23.269 143.199 23.2394 143.044 23.2075C142.893 23.171 142.741 23.1391 142.586 23.1118C142.431 23.0844 142.271 23.0708 142.107 23.0708C141.929 23.0662 141.777 23.0913 141.649 23.146C141.526 23.1961 141.424 23.269 141.342 23.3647C141.264 23.4604 141.207 23.5744 141.171 23.7065C141.134 23.8341 141.116 23.9731 141.116 24.1235V26.3999C141.257 26.1811 141.41 25.9988 141.574 25.853C141.738 25.7072 141.904 25.591 142.073 25.5044C142.246 25.4178 142.415 25.3585 142.579 25.3266C142.747 25.2902 142.907 25.2719 143.057 25.2719C143.509 25.2719 143.907 25.3517 144.254 25.5112C144.6 25.6661 144.892 25.8735 145.129 26.1333C145.37 26.393 145.552 26.6938 145.676 27.0356C145.799 27.3729 145.86 27.7215 145.86 28.0815V29.7768ZM157.097 25.3813C157.097 25.1899 157.092 24.9985 157.083 24.8071C157.074 24.6111 157.053 24.422 157.022 24.2397C156.99 24.0574 156.939 23.8888 156.871 23.7339C156.803 23.5789 156.707 23.4422 156.584 23.3237C156.466 23.2052 156.315 23.1141 156.133 23.0503C155.955 22.9819 155.736 22.9477 155.477 22.9477C155.126 22.9477 154.841 23.0001 154.622 23.1049C154.408 23.2098 154.242 23.3647 154.123 23.5698C154.005 23.7749 153.925 24.0301 153.884 24.3354C153.843 24.6362 153.822 24.9848 153.822 25.3813V26.5161C153.822 27.3592 153.954 27.979 154.219 28.3755C154.483 28.7674 154.902 28.9633 155.477 28.9633C155.732 28.9633 155.948 28.9269 156.126 28.854C156.304 28.7811 156.452 28.6831 156.57 28.56C156.693 28.4324 156.789 28.2866 156.857 28.1225C156.926 27.9585 156.978 27.7853 157.015 27.603C157.051 27.4207 157.074 27.2361 157.083 27.0493C157.092 26.8624 157.097 26.6847 157.097 26.5161V25.3813ZM155.948 32.5796H154.718C154.052 32.5796 153.446 32.5021 152.899 32.3471C152.357 32.1876 151.869 31.9689 151.437 31.6909C151.008 31.4129 150.634 31.0848 150.315 30.7065C150.001 30.3237 149.739 29.9113 149.529 29.4692C149.32 29.0272 149.162 28.5623 149.058 28.0747C148.957 27.5825 148.907 27.0857 148.907 26.5844V25.7573C148.907 25.5294 148.916 25.2811 148.935 25.0122C148.953 24.7387 148.992 24.4676 149.051 24.1987C149.11 23.9298 149.194 23.6701 149.304 23.4194C149.413 23.1688 149.559 22.9477 149.741 22.7563C149.928 22.5649 150.154 22.4122 150.418 22.2983C150.682 22.1798 151.001 22.1206 151.375 22.1206C151.635 22.1206 151.86 22.1479 152.052 22.2026C152.248 22.2573 152.421 22.3484 152.571 22.476C152.722 22.5991 152.856 22.7677 152.975 22.9819C153.098 23.1915 153.218 23.4536 153.337 23.768C153.446 23.4445 153.569 23.1779 153.706 22.9682C153.847 22.754 154.005 22.5854 154.178 22.4624C154.355 22.3348 154.551 22.2459 154.766 22.1958C154.98 22.1456 155.217 22.1206 155.477 22.1206C155.814 22.1206 156.112 22.1661 156.372 22.2573C156.632 22.3484 156.857 22.4738 157.049 22.6333C157.24 22.7882 157.4 22.9705 157.527 23.1801C157.66 23.3898 157.764 23.6154 157.842 23.8569C157.924 24.0984 157.981 24.3491 158.013 24.6089C158.049 24.8686 158.067 25.1261 158.067 25.3813V26.5571C158.067 26.9399 158.017 27.325 157.917 27.7124C157.821 28.0952 157.669 28.4393 157.459 28.7446C157.249 29.0499 156.98 29.2983 156.652 29.4897C156.324 29.6811 155.932 29.7768 155.477 29.7768C155.044 29.7768 154.663 29.6948 154.335 29.5307C154.011 29.3621 153.74 29.132 153.522 28.8403C153.307 28.5441 153.146 28.1954 153.036 27.7944C152.927 27.3888 152.872 26.949 152.872 26.4751V25.4087C152.872 25.0714 152.845 24.7547 152.79 24.4585C152.74 24.1577 152.656 23.8956 152.537 23.6723C152.419 23.449 152.264 23.2736 152.072 23.146C151.885 23.0138 151.653 22.9477 151.375 22.9477C151.133 22.9477 150.928 22.9956 150.76 23.0913C150.591 23.1824 150.45 23.3055 150.336 23.4604C150.222 23.6154 150.133 23.7931 150.069 23.9936C150.01 24.1896 149.965 24.3924 149.933 24.602C149.901 24.8071 149.88 25.0122 149.871 25.2173C149.867 25.4178 149.864 25.5978 149.864 25.7573V26.5434C149.864 27.2817 149.969 27.963 150.179 28.5874C150.393 29.2117 150.705 29.7518 151.115 30.2075C151.525 30.6632 152.031 31.0187 152.633 31.2739C153.239 31.5291 153.934 31.6567 154.718 31.6567H155.948V32.5796ZM166.645 28.4438C166.64 28.895 166.604 29.3462 166.535 29.7973C166.467 30.2485 166.353 30.6655 166.194 31.0483C166.039 31.4311 165.829 31.7592 165.565 32.0327C165.3 32.3061 164.97 32.4884 164.574 32.5796L164.492 31.7661C164.656 31.7661 164.811 31.6932 164.956 31.5473C165.102 31.4015 165.23 31.1896 165.339 30.9116C165.449 30.629 165.535 30.285 165.599 29.8794C165.663 29.4738 165.695 29.0112 165.695 28.4917V25.9555C165.695 25.4861 165.667 25.0646 165.613 24.6909C165.558 24.3172 165.462 24.0027 165.326 23.7475C165.193 23.4878 165.011 23.2895 164.779 23.1528C164.551 23.0161 164.259 22.9477 163.904 22.9477C163.512 22.9477 163.19 23.0184 162.94 23.1596C162.694 23.2964 162.5 23.4969 162.359 23.7612C162.222 24.021 162.126 24.34 162.072 24.7182C162.021 25.0965 161.996 25.5226 161.996 25.9966V28.4917C161.996 29.0021 162.019 29.4601 162.065 29.8657C162.11 30.2713 162.174 30.6154 162.256 30.8979C162.338 31.1759 162.438 31.3901 162.557 31.5405C162.68 31.6909 162.817 31.7661 162.967 31.7661L162.953 32.5796C162.685 32.5294 162.45 32.4337 162.249 32.2924C162.053 32.1466 161.885 31.9712 161.743 31.7661C161.602 31.5564 161.486 31.3217 161.395 31.062C161.304 30.7977 161.233 30.5242 161.183 30.2417C161.133 29.9546 161.096 29.6629 161.074 29.3667C161.055 29.0659 161.046 28.7742 161.046 28.4917V26.0239C161.046 25.7231 161.062 25.4178 161.094 25.1079C161.126 24.798 161.181 24.4995 161.258 24.2124C161.336 23.9207 161.44 23.6495 161.573 23.3989C161.709 23.1437 161.88 22.9227 162.085 22.7358C162.295 22.5444 162.543 22.394 162.83 22.2846C163.122 22.1753 163.462 22.1206 163.849 22.1206C164.241 22.1206 164.583 22.1684 164.874 22.2641C165.171 22.3598 165.421 22.492 165.626 22.6606C165.836 22.8292 166.007 23.032 166.139 23.269C166.271 23.506 166.376 23.768 166.453 24.0551C166.531 24.3377 166.583 24.6408 166.611 24.9643C166.643 25.2833 166.659 25.6137 166.659 25.9555L166.645 28.4438Z" fill="white"/>
</g>
</svg>
