<svg width="242" height="67" viewBox="0 0 242 67" fill="none" xmlns="http://www.w3.org/2000/svg">
<g id="Btns wrapper">
<g id="Rectangle 13" filter="url(#filter0_d_4121_453)">
<path d="M8 8H224V46C224 47.6569 222.657 49 221 49H11C9.34315 49 8 47.6569 8 46V8Z" fill="#333333"/>
<path d="M8.5 8.5H223.5V46C223.5 47.3807 222.381 48.5 221 48.5H11C9.61929 48.5 8.5 47.3807 8.5 46V8.5Z" stroke="black"/>
</g>
<g id="CTA Btns">
<g id="See btn">
<circle id="Ellipse 7" cx="35" cy="28" r="11.5" fill="black" stroke="#88D06F"/>
<circle id="Ellipse 8" cx="35" cy="28" r="6" fill="#88D06F"/>
</g>
<g id="modify btn">
<circle id="Ellipse 7_2" cx="114" cy="28" r="11.5" fill="black" stroke="#F2C94C"/>
<circle id="Ellipse 8_2" cx="114" cy="28" r="6" fill="#F2C94C"/>
</g>
<g id="Delete btn">
<circle id="Ellipse 7_3" cx="193" cy="28" r="11.5" fill="black" stroke="#EB5757"/>
<circle id="Ellipse 8_3" cx="193" cy="28" r="6" fill="#EB5757"/>
</g>
</g>
</g>
<defs>
<filter id="filter0_d_4121_453" x="0" y="0" width="242" height="67" filterUnits="userSpaceOnUse" color-interpolation-filters="sRGB">
<feFlood flood-opacity="0" result="BackgroundImageFix"/>
<feColorMatrix in="SourceAlpha" type="matrix" values="0 0 0 0 0 0 0 0 0 0 0 0 0 0 0 0 0 0 127 0" result="hardAlpha"/>
<feOffset dx="5" dy="5"/>
<feGaussianBlur stdDeviation="6.5"/>
<feColorMatrix type="matrix" values="0 0 0 0 0 0 0 0 0 0 0 0 0 0 0 0 0 0 0.63 0"/>
<feBlend mode="normal" in2="BackgroundImageFix" result="effect1_dropShadow_4121_453"/>
<feBlend mode="normal" in="SourceGraphic" in2="effect1_dropShadow_4121_453" result="shape"/>
</filter>
</defs>
</svg>
