<svg width="47" height="37" viewBox="0 0 47 37" fill="none" xmlns="http://www.w3.org/2000/svg">
<g id="Camera">
<path id="Vector 10" d="M2.44971 8.98989C2.16588 9.52601 1.59824 34.3572 2.44971 34.9125C2.87642 35.1908 13.1403 34.3975 23.476 34.4394C33.7647 34.4811 44.1255 35.3596 44.5503 34.9125C45.4018 34.0162 44.8341 9.32102 44.5503 8.98989C44.2665 8.65875 33.0081 7.85452 32.1566 7.47611C31.3052 7.09771 30.2645 3.12416 29.3184 2.4619C28.3723 1.79964 17.9654 1.89425 17.2086 2.4619C16.4517 3.02955 14.8434 7.09765 14.2757 7.47611C13.7081 7.85458 2.73354 8.45376 2.44971 8.98989Z" fill="#535353" stroke="#535353" stroke-width="2.27059"/>
<path id="Ellipse 9" d="M29.6256 22.0457C29.6256 25.3898 26.9147 28.1007 23.5706 28.1007C20.2266 28.1007 17.5157 25.3898 17.5157 22.0457C17.5157 18.7017 20.2266 15.9908 23.5706 15.9908C26.9147 15.9908 29.6256 18.7017 29.6256 22.0457Z" fill="#535353" stroke="white" stroke-width="2.27059"/>
<path id="Line 2" d="M6.35199 12.3011C6.35199 12.3011 8.71721 12.2065 9.66329 12.2065C10.6094 12.2065 13.0848 12.0967 13.0848 12.0967" stroke="white" stroke-width="0.94608" stroke-linecap="round"/>
<path id="Vector 11" d="M36.0249 4.50806C35.8018 4.66207 35.2074 5.85114 35.302 5.95407C35.3966 6.05699 40.6947 6.62464 40.8532 6.53827C41.0117 6.4519 40.7893 5.1109 40.6353 4.99325C40.4813 4.87559 36.2481 4.35405 36.0249 4.50806Z" fill="#535353"/>
</g>
</svg>
