<svg width="270" height="128" viewBox="0 0 270 128" fill="none" xmlns="http://www.w3.org/2000/svg">
<path d="M130.413 20.0349C130.285 22.0108 130.632 29.7454 134.425 30.773C138.217 31.8007 141.941 25.5711 142.828 23.8007C143.715 22.0304 145.718 16.139 138.891 14.2892C132.064 12.4395 130.542 18.0589 130.413 20.0349Z" fill="#F2C94C"/>
<path d="M121.318 45.6728C121.649 45.6839 122.43 79.2139 133.695 79.2139C144.959 79.2139 146.768 46.5254 147.098 46.5365C147.429 46.5475 157.736 60.2284 160.198 60.4682C161.444 60.5896 165.532 59.4622 169.267 58.3184C175.873 64.401 180.188 63.0232 183.845 59.9065C188.102 56.2784 185.902 49.4271 187.195 48.3252C188.488 47.2234 195.487 48.115 198.524 45.5273C201.56 42.9396 196.915 31.9385 196.915 31.9385C196.915 31.9385 216.761 13.7989 216.982 13.5905C216.895 13.6967 218.267 15.6148 218.83 15.7554C219.396 15.8966 229.505 7.28074 229.559 6.61197C229.612 5.9432 225.345 4.59327 225.051 4.22049C224.757 3.8477 223.351 0.0595332 222.689 0.000321299C222.027 -0.0588906 212.471 8.08516 212.676 8.53414C212.879 8.97936 214.393 10.7583 214.519 10.7023C214.214 10.9162 192.608 26.8836 192.608 26.8836C192.608 26.8836 183.003 20.7332 179.392 23.8103C175.782 26.8874 176.082 32.2411 174.789 33.343C173.496 34.4449 167.125 32.3951 163.229 35.7154C159.528 38.8694 157.425 44.0363 164.608 53.2111L162.743 53.6425C162.743 53.6425 155.46 43.8547 153.224 41.4762C150.987 39.0976 145.776 36.6193 142.163 35.8401C138.549 35.0608 129.284 35.0795 126.629 35.3197C123.973 35.5598 118.961 37.0374 116.206 40.236C113.452 43.4347 110.885 50.9179 109.2 51.8487C108.921 52.0026 108.44 51.9968 107.831 51.8801C111.14 45.669 109.142 42.0962 105.825 39.2848C101.558 35.6681 95.151 38.9436 93.8551 37.8451C92.5593 36.7467 92.3113 29.6956 89.268 27.116C86.2248 24.5364 76.116 30.8931 76.116 30.8931C76.116 30.8931 55.0151 14.2306 54.7738 14.0458C54.8927 14.1151 56.5646 12.4514 56.6126 11.8734C56.6608 11.2924 46.5283 2.70345 45.8596 2.75858C45.191 2.81371 44.5464 7.24247 44.2259 7.59267C43.9053 7.94286 40.3933 9.94101 40.4415 10.6038C40.4898 11.2666 50.0675 19.3852 50.4776 19.1109C50.8843 18.839 52.3959 17.0575 52.3204 16.9422C52.5806 17.2086 71.8216 35.9594 71.8216 35.9594C71.8216 35.9594 67.2995 46.4299 70.9183 49.4973C74.5371 52.5648 79.7724 51.4055 81.0682 52.5039C82.3641 53.6024 81.3679 60.2207 85.2728 63.5307C89.1776 66.8406 95.5839 67.3413 104.173 57.2087C107.198 59.035 110.211 60.4931 111.249 59.8157C113.58 58.2943 120.988 45.6618 121.318 45.6728Z" fill="#F2C94C"/>
<path d="M59.3654 107.431C59.4033 107.419 59.5483 107.383 59.8005 107.323C60.0653 107.264 60.412 107.193 60.8405 107.11C61.2692 107.015 61.7608 106.921 62.3152 106.827C62.8823 106.722 63.487 106.635 64.129 106.568C64.2311 104.495 64.5497 102.701 65.0846 101.186C65.6322 99.6721 66.3089 98.3795 67.1147 97.3086C66.2883 97.0465 65.4368 96.7778 64.5602 96.5025C63.6962 96.2274 62.8319 95.9774 61.9673 95.7525C61.1026 95.5277 60.2437 95.3469 59.3905 95.2102C58.55 95.0611 57.7464 94.9816 56.9796 94.9717C56.0619 94.9599 55.2688 95.0377 54.6003 95.2052C53.9445 95.3602 53.3885 95.5793 52.9322 95.8627C52.4761 96.1334 52.1011 96.4492 51.8073 96.81C51.5261 97.171 51.3075 97.5454 51.1516 97.9332C50.9959 98.3083 50.8905 98.6842 50.8354 99.0606C50.7804 99.4246 50.751 99.7574 50.7471 100.059C50.7436 100.336 50.7533 100.556 50.7763 100.72C50.7994 100.883 50.8107 100.978 50.8104 101.003L50.0731 101.144C50.0615 101.069 50.0501 100.974 50.039 100.861C50.0277 100.76 50.0165 100.653 50.0054 100.54C50.007 100.414 50.0088 100.276 50.0108 100.125C50.0151 99.7856 50.0452 99.4025 50.101 98.9758C50.1693 98.5492 50.288 98.1169 50.4571 97.679C50.6388 97.2413 50.8832 96.8107 51.1904 96.3872C51.5102 95.9638 51.9236 95.5919 52.4306 95.2716C52.9502 94.9513 53.5759 94.6954 54.3075 94.5036C55.0518 94.312 55.9331 94.2228 56.9513 94.2358C57.8941 94.248 58.8297 94.3354 59.758 94.4982C60.699 94.6486 61.6143 94.8427 62.504 95.0805C63.4063 95.3058 64.2894 95.5623 65.1533 95.8501C66.0172 96.1252 66.8562 96.3937 67.6701 96.6557C68.2575 95.9466 68.8876 95.3449 69.5603 94.8506C70.2456 94.3565 70.9296 93.963 71.6123 93.67C72.2952 93.3644 72.9581 93.1467 73.601 93.0166C74.2566 92.8742 74.8547 92.8064 75.3952 92.8134C75.8226 92.8189 76.218 92.8742 76.5812 92.9795C76.9445 93.0848 77.2568 93.2396 77.5182 93.4442C77.7922 93.6489 78.0028 93.8967 78.1499 94.1878C78.3098 94.4665 78.3874 94.7818 78.3829 95.1338C78.3782 95.4983 78.2601 95.8866 78.0285 96.2985C77.8094 96.7106 77.4776 97.0898 77.0331 97.4361C76.5888 97.7699 76.032 98.0456 75.3629 98.2633C74.6937 98.481 73.9066 98.5841 73.0015 98.5724C72.3855 98.5645 71.7076 98.4804 70.9679 98.32C70.2282 98.1596 69.4448 97.9672 68.6179 97.7428C67.9748 98.8661 67.4678 100.161 67.0969 101.627C66.7388 103.081 66.4981 104.687 66.3749 106.446C66.5132 106.448 66.6515 106.443 66.79 106.432C66.941 106.422 67.0856 106.417 67.2239 106.419C68.0787 106.43 68.82 106.471 69.4477 106.542C70.0882 106.601 70.653 106.677 71.1421 106.771C71.6314 106.853 72.0576 106.953 72.4207 107.071C72.7966 107.176 73.1472 107.281 73.4728 107.386L73.3517 108.007C72.6366 107.884 71.8394 107.792 70.9601 107.731C70.0933 107.669 69.2011 107.633 68.2834 107.621C67.9566 107.617 67.6234 107.619 67.2838 107.627C66.957 107.623 66.6362 107.631 66.3217 107.652L66.3124 108.369C66.3034 109.073 66.3078 109.708 66.3257 110.274C66.3437 110.827 66.3621 111.349 66.381 111.84C66.3998 112.33 66.4187 112.815 66.4377 113.293C66.4569 113.758 66.4631 114.255 66.4563 114.783C66.4398 116.065 66.2174 117.225 65.7892 118.263C65.3736 119.289 64.7903 120.168 64.0391 120.9C63.3004 121.632 62.4131 122.193 61.3771 122.582C60.3537 122.971 59.2197 123.158 57.9752 123.142C56.6553 123.125 55.4759 122.933 54.437 122.568C53.398 122.215 52.5184 121.688 51.7982 120.988C51.0905 120.287 50.5485 119.419 50.172 118.383C49.8082 117.347 49.635 116.144 49.6527 114.774C49.6653 113.794 49.8105 112.765 50.0884 111.687L50.8214 111.885C50.7553 112.135 50.6952 112.405 50.6412 112.694C50.6003 112.944 50.5589 113.227 50.5172 113.541C50.488 113.855 50.4713 114.175 50.4671 114.502C50.4349 117.003 51.0387 118.941 52.2783 120.315C53.5307 121.676 55.4328 122.373 57.9847 122.406C59.0406 122.42 59.979 122.287 60.7998 122.009C61.6207 121.73 62.3111 121.324 62.8712 120.791C63.4438 120.257 63.8797 119.603 64.1789 118.827C64.4906 118.052 64.6528 117.174 64.6654 116.193C64.673 115.602 64.6432 114.986 64.576 114.344C64.5215 113.689 64.4548 113.009 64.3759 112.304C64.3097 111.587 64.2438 110.844 64.1782 110.076C64.1252 109.309 64.104 108.516 64.1145 107.699C63.4478 107.728 62.8312 107.764 62.2649 107.808C61.7113 107.838 61.2206 107.863 60.7929 107.883C60.2894 107.927 59.8364 107.959 59.4338 107.979L59.3654 107.431ZM73.0114 97.7993C73.7028 97.8082 74.3323 97.7409 74.9 97.5973C75.4677 97.4411 75.9544 97.24 76.3599 96.9937C76.7656 96.7349 77.0773 96.4497 77.295 96.1382C77.5255 95.8143 77.6428 95.4889 77.647 95.162C77.653 94.6969 77.4442 94.317 77.0205 94.0224C76.5969 93.7152 76.0646 93.5575 75.4235 93.5493C74.0281 93.5313 72.7984 93.8298 71.7344 94.4448C70.6705 95.0472 69.7604 95.9156 69.004 97.05C69.7429 97.2732 70.4447 97.452 71.1094 97.5863C71.774 97.7205 72.408 97.7916 73.0114 97.7993ZM87.8882 119.471C88.5921 119.481 89.268 119.231 89.9157 118.724C90.576 118.217 91.0948 117.476 91.4719 116.5L91.3211 116.498C90.5417 116.488 89.8206 116.347 89.1577 116.074C88.5074 115.802 87.9401 115.43 87.4559 114.959C86.9843 114.475 86.6145 113.904 86.3463 113.247C86.0783 112.577 85.9494 111.846 85.9596 111.054C85.9652 110.614 86.0276 110.169 86.1465 109.718C86.278 109.267 86.4718 108.867 86.7277 108.518C86.9838 108.157 87.3145 107.866 87.7196 107.644C88.1248 107.423 88.604 107.316 89.1571 107.323C89.6096 107.329 90.0547 107.429 90.4922 107.624C90.93 107.805 91.322 108.118 91.6683 108.563C92.0146 109.007 92.2898 109.608 92.4938 110.365C92.7105 111.11 92.8116 112.054 92.7969 113.198C92.7914 113.625 92.767 114.052 92.7238 114.479C92.6807 114.894 92.6064 115.301 92.5006 115.702C92.992 115.621 93.4277 115.469 93.8078 115.248C94.2004 115.026 94.5433 114.76 94.8364 114.45C95.1423 114.127 95.411 113.766 95.6425 113.366C95.8741 112.955 96.0871 112.517 96.2817 112.055L97.0147 112.253C96.7415 112.966 96.4256 113.571 96.0672 114.07C95.7213 114.568 95.345 114.985 94.9384 115.319C94.5443 115.653 94.1261 115.912 93.6837 116.095C93.254 116.265 92.8062 116.379 92.3403 116.436C92.1564 117.049 91.9164 117.625 91.6203 118.162C91.3242 118.698 90.9662 119.165 90.5462 119.562C90.1262 119.959 89.6381 120.274 89.0819 120.505C88.5384 120.725 87.9273 120.83 87.2485 120.821C86.6828 120.814 86.1123 120.693 85.5369 120.46C84.9743 120.214 84.4635 119.849 84.0045 119.365C83.5583 118.869 83.1953 118.254 82.9155 117.522C82.6485 116.776 82.5215 115.895 82.5346 114.876C82.5432 114.21 82.627 113.557 82.7861 112.918C82.9578 112.279 83.1855 111.679 83.4693 111.117C83.7659 110.542 84.1122 110.012 84.5082 109.527C84.9044 109.029 85.3311 108.601 85.7883 108.242L86.0651 108.717C85.7726 108.977 85.4918 109.301 85.2228 109.687C84.9538 110.073 84.7094 110.504 84.4895 110.979C84.2698 111.441 84.0937 111.936 83.9613 112.462C83.8289 112.976 83.7594 113.49 83.7528 114.006C83.7397 115.024 83.8544 115.88 84.097 116.575C84.3521 117.27 84.678 117.833 85.0748 118.266C85.4717 118.686 85.9204 118.994 86.4208 119.189C86.9213 119.371 87.4105 119.465 87.8882 119.471ZM89.1099 108.058C88.7705 108.054 88.4553 108.125 88.1642 108.273C87.8733 108.407 87.6194 108.599 87.4024 108.847C87.1855 109.096 87.0119 109.396 86.8817 109.746C86.7514 110.096 86.6836 110.485 86.6781 110.913C86.6685 111.654 86.7857 112.322 87.0295 112.916C87.2733 113.51 87.6063 114.017 88.0283 114.438C88.463 114.858 88.968 115.185 89.5433 115.419C90.1188 115.64 90.7397 115.755 91.406 115.764L91.7643 115.768C91.8698 115.38 91.9442 114.972 91.9874 114.545C92.0306 114.118 92.0555 113.654 92.0619 113.151C92.0492 112.182 91.959 111.377 91.7913 110.733C91.6363 110.077 91.4293 109.553 91.1703 109.16C90.9113 108.767 90.6006 108.486 90.2381 108.318C89.8883 108.15 89.5122 108.064 89.1099 108.058ZM110.716 97.6995C110.706 98.4915 110.601 99.3325 110.401 100.223C110.214 101.113 109.963 102.015 109.65 102.929C109.349 103.843 108.997 104.762 108.596 105.687C108.207 106.613 107.812 107.5 107.411 108.35C107.01 109.2 106.617 110.006 106.23 110.768C105.843 111.53 105.501 112.211 105.204 112.81C105.241 113.842 105.317 114.773 105.432 115.605C105.547 116.436 105.695 117.148 105.876 117.741C106.057 118.322 106.278 118.771 106.537 119.089C106.797 119.407 107.097 119.568 107.437 119.572C107.814 119.577 108.187 119.406 108.556 119.058C108.937 118.711 109.321 118.219 109.706 117.583C110.092 116.947 110.485 116.179 110.886 115.279C111.288 114.379 111.697 113.372 112.113 112.258L112.846 112.456C112.534 113.32 112.182 114.233 111.793 115.196C111.403 116.147 110.971 117.021 110.495 117.82C110.02 118.618 109.502 119.278 108.942 119.799C108.395 120.32 107.807 120.576 107.179 120.568C106.55 120.56 106.025 120.358 105.602 119.963C105.18 119.568 104.834 119.054 104.566 118.422C104.298 117.778 104.093 117.052 103.953 116.246C103.812 115.427 103.71 114.595 103.645 113.752C103.581 112.909 103.547 112.091 103.545 111.299C103.542 110.495 103.545 109.784 103.553 109.168C103.568 108.024 103.627 106.887 103.729 105.757C103.844 104.627 104.003 103.548 104.205 102.519C104.419 101.491 104.67 100.539 104.958 99.6623C105.246 98.7733 105.576 98.0106 105.949 97.3742C106.335 96.7253 106.75 96.2215 107.194 95.8626C107.652 95.5038 108.144 95.3279 108.672 95.3347C109.049 95.3395 109.369 95.4065 109.632 95.5356C109.894 95.6647 110.105 95.8371 110.266 96.0529C110.427 96.2688 110.543 96.5217 110.615 96.8118C110.687 97.0893 110.72 97.3852 110.716 97.6995ZM105.146 108.491C105.14 108.969 105.134 109.44 105.128 109.905C105.122 110.358 105.129 110.798 105.149 111.226C105.471 110.601 105.813 109.92 106.175 109.183C106.536 108.433 106.892 107.665 107.241 106.877C107.604 106.077 107.947 105.271 108.272 104.457C108.597 103.644 108.884 102.85 109.133 102.073C109.382 101.284 109.58 100.539 109.727 99.8368C109.887 99.1222 109.971 98.4757 109.978 97.8975C109.981 97.7089 109.965 97.5075 109.93 97.2933C109.907 97.0793 109.853 96.8837 109.767 96.7066C109.694 96.5171 109.583 96.3648 109.434 96.2497C109.285 96.1221 109.09 96.0567 108.852 96.0536C108.374 96.0475 107.911 96.3558 107.463 96.9787C107.028 97.5892 106.639 98.4455 106.298 99.5475C105.97 100.65 105.702 101.966 105.493 103.498C105.285 105.016 105.169 106.681 105.146 108.491ZM126.616 98.4886C126.605 99.3811 126.428 100.366 126.088 101.443C125.76 102.507 125.33 103.646 124.799 104.859C124.281 106.071 123.692 107.334 123.034 108.645C122.389 109.957 121.749 111.301 121.115 112.676C121.028 113.605 120.935 114.484 120.836 115.312C120.75 116.141 120.665 116.907 120.58 117.61C120.775 117.172 120.995 116.666 121.241 116.091C121.5 115.503 121.784 114.903 122.094 114.291C122.404 113.679 122.738 113.08 123.098 112.494C123.47 111.895 123.86 111.366 124.269 110.906C124.69 110.433 125.128 110.055 125.585 109.772C126.053 109.489 126.546 109.351 127.061 109.357C127.413 109.362 127.745 109.442 128.057 109.596C128.382 109.752 128.663 109.963 128.898 110.23C129.134 110.484 129.318 110.782 129.452 111.123C129.586 111.464 129.651 111.823 129.646 112.201C129.638 112.829 129.486 113.387 129.191 113.873C128.895 114.347 128.519 114.757 128.062 115.103C127.618 115.45 127.117 115.739 126.561 115.971C126.005 116.202 125.462 116.384 124.932 116.515C124.979 116.755 125.083 117.039 125.242 117.368C125.401 117.697 125.611 118.014 125.871 118.319C126.144 118.612 126.467 118.867 126.842 119.086C127.216 119.292 127.636 119.398 128.101 119.404C129.082 119.417 130.013 118.856 130.895 117.724C131.777 116.578 132.661 114.848 133.545 112.534L134.278 112.732C133.849 113.858 133.408 114.896 132.956 115.845C132.504 116.782 132.016 117.593 131.491 118.278C130.98 118.963 130.426 119.497 129.83 119.879C129.234 120.261 128.584 120.447 127.88 120.438C127.604 120.435 127.284 120.393 126.92 120.313C126.569 120.233 126.2 120.071 125.814 119.827C125.44 119.571 125.067 119.214 124.696 118.757C124.325 118.299 123.987 117.685 123.682 116.914C123.646 116.838 123.609 116.744 123.573 116.63C123.549 116.516 123.538 116.428 123.538 116.365C123.542 116.127 123.6 115.964 123.714 115.877C123.829 115.778 123.968 115.711 124.132 115.675C124.308 115.64 124.497 115.617 124.699 115.607C124.9 115.585 125.096 115.537 125.285 115.464C126.22 115.111 126.912 114.598 127.361 113.925C127.822 113.24 128.058 112.463 128.069 111.596C128.077 111.043 127.962 110.658 127.726 110.441C127.49 110.212 127.215 110.095 126.901 110.091C126.649 110.088 126.397 110.153 126.144 110.289C125.891 110.411 125.662 110.565 125.459 110.751C124.937 111.26 124.445 111.857 123.984 112.543C123.535 113.216 123.117 113.921 122.731 114.658C122.357 115.382 122.014 116.101 121.703 116.813C121.405 117.514 121.146 118.145 120.925 118.708C120.716 119.259 120.553 119.709 120.436 120.06C120.331 120.41 120.278 120.586 120.278 120.586L119.544 120.463C119.533 120.325 119.529 120.155 119.532 119.954C119.522 119.778 119.518 119.57 119.521 119.331C119.524 119.092 119.528 118.81 119.532 118.483C119.541 117.766 119.565 116.886 119.604 115.843C119.642 114.788 119.701 113.613 119.781 112.319C119.873 111.013 119.992 109.6 120.137 108.08C120.295 106.561 120.491 104.973 120.726 103.316C120.92 101.961 121.161 100.82 121.449 99.8932C121.75 98.9667 122.081 98.2228 122.44 97.6617C122.799 97.0879 123.176 96.6779 123.568 96.4314C123.961 96.185 124.359 96.0644 124.761 96.0696C125.088 96.0738 125.37 96.1403 125.607 96.2691C125.845 96.3978 126.037 96.5763 126.185 96.8046C126.333 97.0202 126.443 97.2731 126.515 97.5632C126.587 97.8533 126.62 98.1617 126.616 98.4886ZM124.94 96.8451C124.626 96.8411 124.334 97.0196 124.065 97.3808C123.809 97.7421 123.57 98.242 123.348 98.8803C123.126 99.5187 122.916 100.27 122.716 101.135C122.529 101.988 122.354 102.916 122.19 103.92C122.039 104.911 121.893 105.953 121.753 107.045C121.614 108.124 121.487 109.204 121.372 110.284C121.682 109.634 122.012 108.953 122.36 108.241C122.709 107.529 123.045 106.804 123.369 106.066C123.706 105.329 124.023 104.603 124.321 103.891C124.632 103.165 124.899 102.471 125.121 101.807C125.356 101.144 125.54 100.53 125.673 99.9664C125.819 99.4024 125.894 98.9068 125.9 98.4794C125.901 98.3285 125.891 98.1587 125.868 97.9698C125.858 97.781 125.816 97.6045 125.743 97.4401C125.682 97.2759 125.59 97.1364 125.466 97.0216C125.341 96.9069 125.166 96.848 124.94 96.8451ZM145.249 102.33C145.24 103.034 145.376 103.671 145.658 104.24C145.94 104.797 146.323 105.311 146.807 105.783C147.292 106.242 147.858 106.67 148.507 107.068C149.169 107.454 149.868 107.834 150.605 108.208C151.342 108.569 152.098 108.931 152.873 109.293C153.66 109.643 154.423 110.017 155.159 110.416C155.896 110.803 156.588 111.227 157.236 111.688C157.897 112.136 158.469 112.64 158.952 113.2C159.435 113.747 159.817 114.361 160.097 115.044C160.378 115.714 160.513 116.47 160.502 117.312C160.482 118.846 160.176 120.175 159.583 121.299C158.991 122.41 158.206 123.324 157.228 124.041C156.251 124.77 155.119 125.302 153.832 125.638C152.545 125.986 151.204 126.151 149.808 126.133C148.577 126.117 147.416 125.939 146.326 125.598C145.237 125.269 144.281 124.811 143.459 124.222C142.636 123.646 141.985 122.952 141.505 122.141C141.038 121.343 140.81 120.473 140.822 119.53C140.833 118.7 140.967 117.998 141.226 117.423C141.498 116.835 141.787 116.355 142.093 115.982C142.413 115.609 142.712 115.336 142.99 115.163C143.269 114.991 143.428 114.899 143.465 114.887L143.869 115.778C143.844 115.79 143.723 115.871 143.507 116.019C143.292 116.154 143.057 116.371 142.801 116.67C142.559 116.968 142.327 117.355 142.107 117.83C141.9 118.293 141.792 118.863 141.784 119.542C141.775 120.221 141.893 120.832 142.137 121.376C142.394 121.907 142.734 122.377 143.156 122.785C143.591 123.193 144.083 123.545 144.633 123.841C145.195 124.137 145.776 124.377 146.377 124.561C146.978 124.758 147.58 124.897 148.183 124.98C148.785 125.076 149.344 125.127 149.859 125.134C151.192 125.151 152.401 124.997 153.486 124.671C154.571 124.359 155.495 123.912 156.257 123.33C157.031 122.762 157.63 122.097 158.055 121.336C158.48 120.561 158.698 119.728 158.71 118.836C158.723 117.83 158.52 116.96 158.102 116.225C157.684 115.491 157.127 114.842 156.43 114.28C155.733 113.705 154.935 113.192 154.035 112.741C153.149 112.277 152.237 111.825 151.299 111.385C150.375 110.946 149.463 110.488 148.564 110.011C147.677 109.522 146.886 108.965 146.19 108.34C145.494 107.715 144.937 106.997 144.52 106.187C144.103 105.365 143.902 104.394 143.917 103.275C143.933 102.031 144.155 100.896 144.583 99.87C145.023 98.8447 145.613 97.9659 146.352 97.2336C147.103 96.4889 147.978 95.9218 148.976 95.5323C149.975 95.1302 151.052 94.9366 152.209 94.9515C153.378 94.9665 154.4 95.118 155.277 95.4058C156.153 95.6812 156.884 96.0677 157.468 96.5656C158.066 97.051 158.504 97.635 158.785 98.3176C159.078 99.0003 159.219 99.7502 159.209 100.567C159.2 101.234 159.11 101.886 158.938 102.525C158.779 103.152 158.602 103.715 158.407 104.216C158.212 104.716 158.031 105.122 157.864 105.435C157.696 105.747 157.606 105.922 157.593 105.959L156.75 105.477C156.75 105.464 156.822 105.314 156.964 105.027C157.118 104.74 157.286 104.365 157.468 103.902C157.65 103.439 157.814 102.919 157.96 102.343C158.118 101.754 158.201 101.158 158.209 100.554C158.218 99.8756 158.1 99.258 157.856 98.7017C157.624 98.1329 157.26 97.6505 156.762 97.2543C156.264 96.8581 155.633 96.5483 154.869 96.3247C154.105 96.1012 153.201 95.9827 152.158 95.9692C151.19 95.9568 150.289 96.1087 149.455 96.4248C148.621 96.7284 147.893 97.1654 147.269 97.7357C146.658 98.3062 146.172 98.9852 145.81 99.7727C145.448 100.548 145.261 101.4 145.249 102.33ZM176.407 120.61C177.111 120.619 177.787 120.37 178.435 119.863C179.095 119.356 179.614 118.614 179.991 117.638L179.84 117.636C179.061 117.626 178.34 117.485 177.677 117.212C177.026 116.94 176.459 116.568 175.975 116.097C175.503 115.613 175.133 115.042 174.865 114.385C174.597 113.715 174.468 112.984 174.479 112.192C174.484 111.752 174.547 111.307 174.665 110.856C174.797 110.405 174.991 110.005 175.247 109.656C175.503 109.295 175.833 109.004 176.239 108.783C176.644 108.562 177.123 108.455 177.676 108.462C178.129 108.468 178.574 108.568 179.011 108.762C179.449 108.943 179.841 109.256 180.187 109.701C180.534 110.145 180.809 110.746 181.013 111.503C181.23 112.248 181.331 113.192 181.316 114.336C181.31 114.763 181.286 115.191 181.243 115.618C181.2 116.032 181.125 116.44 181.02 116.841C181.511 116.759 181.947 116.607 182.327 116.386C182.719 116.165 183.062 115.899 183.355 115.588C183.661 115.265 183.93 114.904 184.161 114.505C184.393 114.093 184.606 113.655 184.801 113.193L185.534 113.391C185.26 114.104 184.945 114.71 184.586 115.208C184.24 115.706 183.864 116.123 183.457 116.457C183.063 116.791 182.645 117.05 182.203 117.233C181.773 117.403 181.325 117.517 180.859 117.574C180.675 118.188 180.435 118.763 180.139 119.3C179.843 119.837 179.485 120.304 179.065 120.7C178.645 121.097 178.157 121.412 177.601 121.643C177.057 121.863 176.446 121.968 175.767 121.959C175.202 121.952 174.631 121.832 174.056 121.598C173.493 121.352 172.982 120.987 172.523 120.503C172.077 120.007 171.714 119.393 171.434 118.66C171.167 117.915 171.04 117.033 171.054 116.015C171.062 115.348 171.146 114.696 171.305 114.056C171.477 113.417 171.704 112.817 171.988 112.255C172.285 111.68 172.631 111.15 173.027 110.665C173.423 110.167 173.85 109.739 174.307 109.38L174.584 109.855C174.292 110.116 174.011 110.439 173.742 110.825C173.473 111.211 173.228 111.642 173.008 112.117C172.789 112.579 172.613 113.074 172.48 113.6C172.348 114.114 172.278 114.628 172.272 115.144C172.259 116.162 172.373 117.019 172.616 117.713C172.871 118.408 173.197 118.972 173.594 119.404C173.991 119.824 174.439 120.132 174.94 120.327C175.44 120.509 175.929 120.604 176.407 120.61ZM177.629 109.197C177.289 109.192 176.974 109.264 176.683 109.411C176.392 109.545 176.138 109.737 175.921 109.986C175.704 110.234 175.531 110.534 175.401 110.884C175.27 111.235 175.203 111.623 175.197 112.051C175.187 112.792 175.305 113.46 175.548 114.054C175.792 114.648 176.125 115.156 176.547 115.576C176.982 115.997 177.487 116.324 178.062 116.557C178.638 116.778 179.259 116.893 179.925 116.902L180.283 116.907C180.389 116.518 180.463 116.11 180.506 115.684C180.55 115.257 180.574 114.792 180.581 114.289C180.568 113.321 180.478 112.515 180.31 111.871C180.155 111.216 179.948 110.691 179.689 110.298C179.43 109.905 179.12 109.624 178.757 109.456C178.407 109.288 178.031 109.202 177.629 109.197ZM199.684 118.25C199.285 118.949 198.9 119.528 198.53 119.989C198.159 120.449 197.79 120.815 197.422 121.087C197.066 121.359 196.705 121.55 196.339 121.658C195.973 121.767 195.596 121.818 195.206 121.813C194.892 121.809 194.534 121.754 194.133 121.649C193.732 121.543 193.351 121.33 192.991 121.012C192.643 120.68 192.347 120.211 192.104 119.605C191.872 118.998 191.763 118.186 191.777 117.167C191.79 116.149 191.921 115.195 192.172 114.306C192.422 113.404 192.696 112.615 192.994 111.94C193.344 111.165 193.743 110.447 194.191 109.787L194.886 110.022C194.873 110.034 194.828 110.147 194.75 110.36C194.684 110.573 194.592 110.861 194.474 111.224C194.369 111.587 194.251 112.007 194.119 112.483C194 112.959 193.88 113.467 193.76 114.006C193.652 114.532 193.557 115.072 193.475 115.624C193.405 116.176 193.367 116.71 193.36 117.226C193.345 118.407 193.54 119.346 193.946 120.043C194.365 120.727 194.914 121.074 195.592 121.083C196.347 121.092 197.081 120.668 197.796 119.81C198.512 118.939 199.2 117.722 199.861 116.159C199.984 115.431 200.143 114.754 200.34 114.128C200.549 113.502 200.751 112.945 200.946 112.457C201.154 111.97 201.341 111.563 201.509 111.239C201.676 110.914 201.799 110.696 201.876 110.583L202.534 110.743C202.32 111.683 202.133 112.529 201.973 113.281C201.825 114.021 201.703 114.692 201.608 115.295C201.512 115.897 201.436 116.437 201.379 116.914C201.336 117.378 201.311 117.799 201.306 118.176C201.297 118.931 201.408 119.536 201.641 119.991C201.874 120.447 202.242 120.678 202.745 120.684C203.085 120.689 203.413 120.567 203.731 120.32C204.048 120.072 204.38 119.662 204.727 119.088C205.074 118.514 205.442 117.771 205.831 116.858C206.22 115.945 206.662 114.819 207.157 113.48L207.89 113.678C207.669 114.203 207.448 114.766 207.227 115.367C207.005 115.968 206.765 116.568 206.506 117.168C206.259 117.769 205.994 118.344 205.71 118.893C205.439 119.443 205.131 119.929 204.786 120.352C204.454 120.775 204.091 121.11 203.698 121.357C203.305 121.603 202.87 121.723 202.392 121.717C201.94 121.711 201.545 121.618 201.208 121.438C200.871 121.257 200.585 121.015 200.35 120.71C200.127 120.405 199.956 120.045 199.836 119.628C199.728 119.2 199.677 118.74 199.684 118.25ZM221.591 99.1252C221.581 99.9171 221.476 100.758 221.276 101.648C221.089 102.539 220.838 103.441 220.525 104.354C220.224 105.268 219.872 106.188 219.471 107.113C219.082 108.039 218.687 108.926 218.286 109.776C217.885 110.626 217.492 111.432 217.105 112.194C216.718 112.956 216.376 113.636 216.079 114.236C216.116 115.268 216.192 116.199 216.307 117.03C216.422 117.862 216.57 118.574 216.751 119.167C216.932 119.748 217.153 120.197 217.412 120.515C217.672 120.832 217.972 120.993 218.312 120.998C218.689 121.002 219.062 120.831 219.431 120.484C219.812 120.137 220.196 119.645 220.581 119.009C220.967 118.373 221.36 117.604 221.761 116.704C222.163 115.804 222.572 114.797 222.988 113.684L223.721 113.882C223.409 114.745 223.057 115.659 222.668 116.622C222.278 117.572 221.846 118.447 221.37 119.245C220.895 120.044 220.377 120.704 219.817 121.224C219.27 121.745 218.682 122.002 218.054 121.994C217.425 121.986 216.9 121.784 216.477 121.389C216.055 120.994 215.709 120.48 215.441 119.848C215.172 119.203 214.968 118.478 214.828 117.671C214.687 116.852 214.585 116.021 214.52 115.178C214.456 114.335 214.422 113.517 214.42 112.725C214.417 111.92 214.42 111.21 214.428 110.594C214.443 109.45 214.502 108.313 214.604 107.183C214.719 106.053 214.878 104.973 215.08 103.945C215.294 102.917 215.545 101.964 215.833 101.088C216.121 100.199 216.451 99.4363 216.824 98.7998C217.21 98.151 217.625 97.6471 218.069 97.2882C218.527 96.9295 219.019 96.7535 219.547 96.7603C219.924 96.7652 220.244 96.8321 220.507 96.9613C220.769 97.0904 220.98 97.2628 221.141 97.4786C221.302 97.6944 221.418 97.9474 221.49 98.2375C221.562 98.515 221.595 98.8109 221.591 99.1252ZM216.021 109.917C216.015 110.394 216.009 110.866 216.003 111.331C215.997 111.783 216.004 112.223 216.024 112.651C216.346 112.027 216.688 111.346 217.049 110.609C217.411 109.859 217.767 109.09 218.116 108.303C218.479 107.503 218.822 106.696 219.147 105.883C219.472 105.07 219.759 104.275 220.008 103.499C220.257 102.71 220.455 101.965 220.602 101.262C220.762 100.548 220.846 99.9014 220.853 99.3231C220.856 99.1346 220.839 98.9332 220.805 98.719C220.782 98.505 220.728 98.3094 220.642 98.1323C220.569 97.9427 220.458 97.7904 220.309 97.6754C220.16 97.5477 219.965 97.4824 219.727 97.4793C219.249 97.4731 218.786 97.7815 218.338 98.4044C217.903 99.0149 217.514 99.8711 217.173 100.973C216.845 102.075 216.577 103.392 216.368 104.923C216.16 106.442 216.044 108.106 216.021 109.917Z" fill="#FBFBFB"/>
</svg>
