<svg width="16" height="22" viewBox="0 0 16 22" fill="none" xmlns="http://www.w3.org/2000/svg">
<g id="Member Icon">
<path id="Vector 7" d="M8.3429 21.097C5.21003 21.097 1.29395 13.6564 1.29395 10.5236C1.29395 7.39071 4.42681 2.4956 8.3429 2.4956C12.259 2.4956 15.0002 7.39071 15.0002 10.3278C15.0002 13.2648 11.4758 21.097 8.3429 21.097Z" fill="#F28300"/>
<path id="Vector 8" d="M5.99301 4.64945C5.99301 4.64945 3.44755 7.97812 2.86014 8.56553C2.27273 9.15294 1.0979 12.09 1.0979 12.09C1.0979 12.09 0.706295 7.58651 1.48951 6.60749C2.27273 5.62847 5.01399 2.104 6.38462 1.51658C7.75525 0.929171 11.2797 0.733364 12.4545 1.51658C13.6294 2.2998 14.6084 4.45364 14.8042 5.23686C15 6.02008 14.8042 11.8942 14.8042 11.8942L13.042 6.02008V8.95714L11.6713 5.23686L8.53846 4.25784L6.97203 6.60749L7.36364 4.45364L5.40559 7.78231L5.99301 4.64945Z" fill="#333333" stroke="black" stroke-width="0.391608"/>
<circle id="Ellipse 4" cx="5.20998" cy="10.3278" r="0.979021" fill="#444444"/>
<circle id="Ellipse 5" cx="11.084" cy="10.3278" r="0.979021" fill="#444444"/>
<path id="Vector 9" d="M5.01416 16.5935C5.01416 16.5935 8.34283 17.3767 10.3009 17.3767C12.2589 17.3767 10.8883 16.7893 10.8883 16.7893" stroke="black" stroke-width="0.391608" stroke-linecap="round"/>
</g>
</svg>
